HIERARCHY
ROOT Hips
{
	OFFSET	0.00	0.00	0.00
	CHANNELS 6 Xposition Yposition Zposition Zrotation Xrotation Yrotation
	JOINT LeftUpLeg
	{
		OFFSET	 0.126116	-0.014019	-0.065224
		CHANNELS 3 Zrotation Xrotation Yrotation
		JOINT LeftLeg
		{
			OFFSET	 0.000000	 0.000000	 0.569914
			CHANNELS 3 Zrotation Xrotation Yrotation
			JOINT LeftFoot
			{
				OFFSET	 0.000000	 0.000000	 0.544423
				CHANNELS 3 Zrotation Xrotation Yrotation
				JOINT LeftToeBase
				{
					OFFSET	 0.000000	 0.000000	 0.207117
					CHANNELS 3 Zrotation Xrotation Yrotation
					End Site
					{
						OFFSET	 0.000000	 0.000000	 0.207117
					}
				}
			}
		}
	}
	JOINT RightUpLeg
	{
		OFFSET	-0.124023	-0.008373	-0.065224
		CHANNELS 3 Zrotation Xrotation Yrotation
		JOINT RightLeg
		{
			OFFSET	 0.000000	 0.000000	 0.570047
			CHANNELS 3 Zrotation Xrotation Yrotation
			JOINT RightFoot
			{
				OFFSET	 0.000000	 0.000000	 0.544354
				CHANNELS 3 Zrotation Xrotation Yrotation
				JOINT RightToeBase
				{
					OFFSET	 0.000000	 0.000000	 0.207540
					CHANNELS 3 Zrotation Xrotation Yrotation
					End Site
					{
						OFFSET	 0.000000	 0.000000	 0.207540
					}
				}
			}
		}
	}
	JOINT Spine
	{
		OFFSET	 0.000184	-0.007763	 0.117403
		CHANNELS 3 Zrotation Xrotation Yrotation
		JOINT Spine1
		{
			OFFSET	 0.000000	 0.000000	 0.137269
			CHANNELS 3 Zrotation Xrotation Yrotation
			JOINT Spine2
			{
				OFFSET	 0.000000	 0.000000	 0.156879
				CHANNELS 3 Zrotation Xrotation Yrotation
				JOINT LeftShoulder
				{
					OFFSET	 0.080501	-0.002496	 0.160144
					CHANNELS 3 Zrotation Xrotation Yrotation
					JOINT LeftArm
					{
						OFFSET	 0.000000	 0.000000	 0.164363
						CHANNELS 3 Zrotation Xrotation Yrotation
						JOINT LeftForeArm
						{
							OFFSET	 0.000000	 0.000000	 0.364576
							CHANNELS 3 Zrotation Xrotation Yrotation
							JOINT LeftHand
							{
								OFFSET	 0.000000	 0.000000	 0.360812
								CHANNELS 3 Zrotation Xrotation Yrotation
								JOINT LeftHandIndex1
								{
									OFFSET	 0.000000	 0.000000	 0.086006
									CHANNELS 3 Zrotation Xrotation Yrotation
									JOINT LeftHandIndex2
									{
										OFFSET	 0.000000	 0.000000	 0.047236
										CHANNELS 3 Zrotation Xrotation Yrotation
										JOINT LeftHandIndex3
										{
											OFFSET	-0.004284	-0.000551	 0.038166
											CHANNELS 3 Zrotation Xrotation Yrotation
											End Site
											{
												OFFSET	-0.004284	-0.000551	 0.038166
											}
										}
									}
								}
							}
						}
					}
				}
				JOINT Neck
				{
					OFFSET	 0.000000	 0.000000	 0.176489
					CHANNELS 3 Zrotation Xrotation Yrotation
					JOINT Head
					{
						OFFSET	 0.000000	-0.001747	 0.077940
						CHANNELS 3 Zrotation Xrotation Yrotation
						End Site
						{
							OFFSET	 0.000000	-0.001747	 0.077940
						}
					}
				}
				JOINT RightShoulder
				{
					OFFSET	-0.080363	 0.000306	 0.159706
					CHANNELS 3 Zrotation Xrotation Yrotation
					JOINT RightArm
					{
						OFFSET	 0.000000	 0.000000	 0.164196
						CHANNELS 3 Zrotation Xrotation Yrotation
						JOINT RightForeArm
						{
							OFFSET	 0.000000	 0.000000	 0.365611
							CHANNELS 3 Zrotation Xrotation Yrotation
							JOINT RightHand
							{
								OFFSET	 0.000000	 0.000000	 0.360648
								CHANNELS 3 Zrotation Xrotation Yrotation
								JOINT RightHandIndex1
								{
									OFFSET	 0.000000	 0.000000	 0.069977
									CHANNELS 3 Zrotation Xrotation Yrotation
									JOINT RightHandIndex2
									{
										OFFSET	 0.000000	 0.000000	 0.052305
										CHANNELS 3 Zrotation Xrotation Yrotation
										JOINT RightHandIndex3
										{
											OFFSET	 0.009002	-0.000782	 0.042196
											CHANNELS 3 Zrotation Xrotation Yrotation
											End Site
											{
												OFFSET	 0.009002	-0.000782	 0.042196
											}
										}
									}
								}
							}
						}
					}
				}
			}
		}
	}
}
MOTION
Frames:    4
Frame Time: 0.03333334
 0.000294	 0.019678	 1.271737	-0.003171	 0.003336	 0.173076	-8.959176	-1.776999	 179.147900	 1.466131	-12.515870	-0.731710	-5.038745	 71.650120	-1.297507	-2.385833	 28.452760	 0.000004	 8.800353	-1.872938	-179.393000	-1.457786	-12.127620	 0.695287	 4.824007	 71.279510	 1.326928	 2.384658	 28.388730	 0.000004	-4.566789	 2.712489	 0.300610	-2.162163	 3.700919	-0.809706	 6.545860	-4.542259	 1.411815	-91.776150	 78.527470	 180.000000	 57.879390	 40.171980	-62.901590	-8.360708	 0.190776	-0.585063	-31.342950	-19.314160	-4.755827	-2.635965	 4.993658	 6.788941	-5.165319	 0.784187	 3.516649	-5.225038	 0.466231	 0.424329	-0.000002	-3.783157	-0.089647	 6.370746	 4.608819	-0.256643	 89.782040	 78.203900	-180.000000	-64.749490	 42.237650	 56.332920	 7.766122	 5.429159	 12.463940	 32.300610	-19.938390	 9.622128	 6.112037	 4.509576	-0.364401	 4.968462	 1.518543	-9.347576	 5.168945	 0.703820	 2.021906
 0.000299	 0.019630	 1.272537	-0.003026	 0.003606	 0.173757	-8.887793	-1.777241	 179.141600	 1.466175	-12.512410	-0.731505	-5.045195	 71.515780	-1.288738	-2.385833	 28.452760	 0.000004	 8.728786	-1.871599	-179.388300	-1.457865	-12.121230	 0.694913	 4.829474	 71.143870	 1.319467	 2.384658	 28.388730	 0.000004	-4.907521	 2.682078	 0.295947	-2.160157	 3.806253	-0.801276	 6.539274	-4.678201	 1.419466	-91.776150	 78.527470	 180.000000	 57.891390	 40.174640	-62.831940	-8.600794	 0.194736	-0.729305	-32.096410	-21.448870	-5.044082	-2.635965	 4.993658	 6.788941	-5.165319	 0.784187	 3.516649	-5.225038	 0.466231	 0.424329	-0.000002	-3.783157	-0.089647	 6.358835	 4.546096	-0.252673	 89.782080	 78.203900	 180.000000	-64.442300	 42.077630	 56.760910	 7.735941	 5.390928	 12.499910	 33.208190	-22.115360	 9.939886	 6.112037	 4.509576	-0.364401	 4.968462	 1.518543	-9.347576	 5.168945	 0.703820	 2.021906
 0.000303	 0.019582	 1.273355	-0.002883	 0.003880	 0.174228	-8.815645	-1.777319	 179.135500	 1.466227	-12.508510	-0.731269	-5.051469	 71.379890	-1.280087	-2.385833	 28.452760	 0.000004	 8.656526	-1.870536	-179.383300	-1.457937	-12.115430	 0.694569	 4.834964	 71.007230	 1.311970	 2.384658	 28.388730	 0.000004	-5.252614	 2.651438	 0.291095	-2.156041	 3.912381	-0.791924	 6.526222	-4.815665	 1.425739	-91.776160	 78.527450	 180.000000	 57.897860	 40.175450	-62.752110	-8.846398	 0.200484	-0.878133	-32.888600	-23.601850	-5.394020	-2.635965	 4.993658	 6.788941	-5.165319	 0.784187	 3.516649	-5.225038	 0.466231	 0.424329	-0.000002	-3.783157	-0.089647	 6.340593	 4.483623	-0.248481	 89.782080	 78.203870	 180.000000	-64.123410	 41.840770	 57.451080	 7.747175	 5.251785	 12.328920	 34.134040	-24.359030	 10.290610	 6.112037	 4.509576	-0.364401	 4.968462	 1.518543	-9.347576	 5.168945	 0.703820	 2.021906
 0.000307	 0.019534	 1.274181	-0.002725	 0.004158	 0.174451	-8.743389	-1.777031	 179.129500	 1.466291	-12.503690	-0.730977	-5.057310	 71.243510	-1.271795	-2.385833	 28.452760	 0.000004	 8.584170	-1.869432	-179.378200	-1.458008	-12.109610	 0.694226	 4.840220	 70.870490	 1.304653	 2.384658	 28.388730	 0.000004	-5.601034	 2.620821	 0.286142	-2.149822	 4.018345	-0.781795	 6.506754	-4.953316	 1.430535	-91.776140	 78.527470	 179.999900	 57.898980	 40.174050	-62.664480	-9.095734	 0.206566	-1.027755	-33.719220	-25.745480	-5.807941	-2.635965	 4.993658	 6.788941	-5.165319	 0.784187	 3.516649	-5.225038	 0.466231	 0.424329	-0.000002	-3.783157	-0.089647	 6.316020	 4.421965	-0.244109	 89.782160	 78.203900	 179.999900	-63.779250	 41.437560	 58.273020	 7.660870	 5.104673	 12.192890	 35.192170	-26.710690	 10.664550	 6.112037	 4.509576	-0.364401	 4.968462	 1.518543	-9.347576	 5.168945	 0.703820	 2.021906
